{"title":"Naked Ambition An R Rated Look At An X Rated Industry 2009 DvDRi","uid":6159430,"size":734768625,"categoryP":"video","categoryS":"movies","magnet":"?xt=urn:btih:4fdb976c370e05170010321321231df9367bcc59&amp;dn=Naked+Ambition+An+R+Rated+Look+At+An+X+Rated+Industry+2009+DvDRi&amp;tr=udp%3A%2F%2Ftracker.openbittorrent.com%3A80&amp;tr=udp%3A%2F%2Fopen.demonii.com%3A1337&amp;tr=udp%3A%2F%2Ftracker.coppersurfer.tk%3A6969&amp;tr=udp%3A%2F%2Fexodus.desync.com%3A6969","seeders":1,"leechers":0,"uploader":"TheCloon","files":-1,"time":1297158219,"description":"PLot:\nNoted Celebrity Photographer, Michael Grecco, sets out to capture the essence of the AVN Awards and Convention where the best in American Pornography is displayed, celebrated and honored.\n\nVideo details:\n\nFormat                           : AVI\nFormat/Info                      : Audio Video Interleave\nFile size                        : 701 MiB\nDuration                         : 1h 20mn\nOverall bit rate                 : 1 210 Kbps\nWriting application              : VirtualDubMod 1.5.10.2 (build 2540/release)\nWriting library                  : VirtualDubMod build 2540/release\n\nVideo\nID                               : 0\nFormat                           : MPEG-4 Visual\nFormat profile                   : Advanced Simple@L5\nFormat settings, BVOP            : Yes\nFormat settings, QPel            : No\nFormat settings, GMC             : No warppoints\nFormat settings, Matrix          : Default (H.263)\nCodec ID                         : XVID\nCodec ID/Hint                    : XviD\nDuration                         : 1h 20mn\nBit rate                         : 1 064 Kbps\nWidth                            : 608 pixels\nHeight                           : 336 pixels\nDisplay aspect ratio             : 16:9\nFrame rate                       : 29.970 fps\nColor space                      : YUV\nChroma subsampling               : 4:2:0\nBit depth                        : 8 bits\nScan type                        : Progressive\nBits/(Pixel*Frame)               : 0.174\nStream size                      : 616 MiB (88%)\nWriting library                  : XviD 1.1.2 (UTC 2006-11-01)\n\nAudio\nID                               : 1\nFormat                           : MPEG Audio\nFormat version                   : Version 1\nFormat profile                   : Layer 3\nCodec ID                         : 55\nCodec ID/Hint                    : MP3\nDuration                         : 1h 20mn\nBit rate mode                    : Variable\nBit rate                         : 132 Kbps\nMinimum bit rate                 : 128 Kbps\nChannel(s)                       : 2 channels\nSampling rate                    : 48.0 KHz\nStream size                      : 76.3 MiB (11%)\nAlignment                        : Aligned on interleaves\nInterleave, duration             : 24 ms (0.72 video frame)\nInterleave, preload duration     : 139 ms\nWriting library                  : LAME3.95 \nEncoding settings                : -m s -V 6 -q 3 -lowpass 16 --vbr-old -b 128\n\n &lt;a href=&quot;\nhttp://www.imdb.com/title/tt1404702/&quot; rel=&quot;nofollow&quot; target=&quot;_NEW&quot;&gt;\nhttp://www.imdb.com/title/tt1404702/&lt;/a&gt;","torrent":{"xt":"urn:btih:4fdb976c370e05170010321321231df9367bcc59","amp;dn":"Naked+Ambition+An+R+Rated+Look+At+An+X+Rated+Industry+2009+DvDRi","amp;tr":["udp%3A%2F%2Ftracker.openbittorrent.com%3A80","udp%3A%2F%2Fopen.demonii.com%3A1337","udp%3A%2F%2Ftracker.coppersurfer.tk%3A6969","udp%3A%2F%2Fexodus.desync.com%3A6969"],"infoHash":"4fdb976c370e05170010321321231df9367bcc59","infoHashBuffer":{"type":"Buffer","data":[79,219,151,108,55,14,5,23,0,16,50,19,33,35,29,249,54,123,204,89]},"announce":[],"urlList":[]}}